# xmcd
#
# Track frame offsets: 
#        150
#        16367
#        31571
#        55677
#        79245
#        106673
#        134769
#        165023
#        184602
#        199093
#        219639
#        254583
#        278239
#
# Disc length: 3992 seconds
#
# Revision: 3
# Processed by: cddbd v1.5.2PL0 Copyright (c) Steve Scherf et al.
# Submitted via: ExactAudioCopy v1.0b3
#
DISCID=a90f960d
DTITLE=Various Artist - Blue Cafe Cd4
DYEAR=2003
DGENRE=Chillout
TTITLE0=Solo Por Tu Amor - Manuel Franjo
TTITLE1=Sublime Ailleurs Theme - Khamsin Orche
TTITLE2=Entre Dos Aguas - Notis Mavroudis and Panagiotis Margaris
TTITLE3=Wonderful - Nacho Sotomayor
TTITLE4=Tiempo - Manuel Franjo
TTITLE5=We're All Beautiful - Joy Of Living Feat. Nitza
TTITLE6=Bohemian Sunset - Jazzanova
TTITLE7=Bright Light - Ohm-G
TTITLE8=Fly Me To The Moon - Jazzamor
TTITLE9=Sunny - C. Spendel Feat. Lisa Shaw
TTITLE10=Dove Estuta - Madrid De Los Austrias 
TTITLE11=Interracial - Mystic Diversions
TTITLE12=Missione A Bombay - Nicola Conte
EXTD=Tsiplaki
EXTT0=
EXTT1=
EXTT2=
EXTT3=
EXTT4=
EXTT5=
EXTT6=
EXTT7=
EXTT8=
EXTT9=
EXTT10=
EXTT11=
EXTT12=
PLAYORDER=
